# xmcd
#
# Track frame offsets:
#	150
#	10241
#	20524
#	31009
#	41357
#	51413
#	61485
#	71182
#	81318
#	92687
#	106187
#	117442
#	128509
#	139850
#	150711
#
# Disc length: 2171 seconds
#
# Revision: 1
# Processed by: cddbd v1.5.2PL0 Copyright (c) Steve Scherf et al.
# Submitted via: audiograbber 1.83.01
#
DISCID=c408790f
DTITLE=Patsy Cline - A Collection Of Country Classics, Disk 1(europe)
DYEAR=1996
DGENRE=Country
TTITLE0=I Love You Honey
TTITLE1=Gotta Lot Of Rhythem In My Soul
TTITLE2=I Cried All The Way To The Altar
TTITLE3=Honky Tonk Merry Go Round
TTITLE4=Pick Me Up On Your Way Down
TTITLE5=Lovesick Blues
TTITLE6=Turn The Cards Slowly
TTITLE7=Three Cigarettes In An Ash Tray
TTITLE8=Never No More
TTITLE9=A Church, A Courtroom and Then Goodbye
TTITLE10=I've Loved And Lost Again
TTITLE11=Just Out Of Reach
TTITLE12=In Care Of The Blues
TTITLE13=A Stranger In My Arms
TTITLE14=A Poor Man's Roses
EXTD=
EXTT0=
EXTT1=
EXTT2=
EXTT3=
EXTT4=
EXTT5=
EXTT6=
EXTT7=
EXTT8=
EXTT9=
EXTT10=
EXTT11=
EXTT12=
EXTT13=
EXTT14=
PLAYORDER=
